<svg width="96" height="96" xmlns="http://www.w3.org/2000/svg" xmlns:xlink="http://www.w3.org/1999/xlink" xml:space="preserve" overflow="hidden"><g transform="translate(-592 -312)"><g><path d="M646 359.2C645.215 358.868 644.375 358.688 643.523 358.668 642.016 358.668 641 359.4 641 360.7 641 362.633 643.239 365.095 646 366.2 646.785 366.532 647.625 366.712 648.477 366.732 649.984 366.732 651 366 651 364.7 651 362.767 648.761 360.305 646 359.2Z" fill="#000000" fill-rule="nonzero" fill-opacity="1"/><path d="M630 355.8C630 353.591 627.314 350.726 624 349.4 623.023 348.987 621.977 348.761 620.917 348.734 619.17 348.735 618 349.542 618 351 618 353.209 620.686 356.074 624 357.4 624.977 357.813 626.023 358.039 627.083 358.065 628.83 358.065 630 357.258 630 355.8Z" fill="#000000" fill-rule="nonzero" fill-opacity="1"/><path d="M634.5 364.6C633.279 364.083 631.972 363.801 630.647 363.768 628.462 363.768 627 364.778 627 366.6 627 369.361 630.358 372.943 634.5 374.6 635.721 375.117 637.028 375.399 638.353 375.432 640.538 375.432 642 374.422 642 372.6 642 369.839 638.642 366.257 634.5 364.6Z" fill="#000000" fill-rule="nonzero" fill-opacity="1"/><path d="M660.966 339.743C660.443 339.913 659.896 340 659.345 340 656.945 340 655 338.433 655 336.5 655.149 334.769 656.479 333.373 658.2 333.139 655.871 327.591 654.038 323.211 654 323.1 650.174 322.388 646.291 322.034 642.4 322.041 629.839 322.041 617.147 325.597 608 332.003L608 373.517 668 398.024 668 381.991C667.74 382.038 667.476 382.062 667.212 382.063 666.973 382.063 666.735 382.042 666.5 382 663.955 381.487 662.094 379.295 662 376.7 661.917 374.701 663.47 373.014 665.469 372.931 665.548 372.928 665.627 372.927 665.706 372.929 665.972 372.929 666.238 372.953 666.5 373 667.026 373.101 667.532 373.285 668 373.544L668 356.512C668 356.512 664.478 348.117 660.966 339.743ZM649.75 328.5C650.043 329.2 650.4 330.053 650.833 331.087 649.647 332.642 649.003 334.544 649 336.5 649.151 341.077 652.474 344.929 656.98 345.749 658.31 348.92 659.562 351.903 660.535 354.221L614.066 335.242C621.817 330.701 632.159 328.042 642.401 328.042 644.858 328.039 647.312 328.192 649.75 328.5ZM656 376.7C656.047 380.87 658.341 384.689 662 386.689L662 389.089 614 369.489 614 341.7 662 361.3 662 367.637C658.328 369.139 655.949 372.733 656 376.7Z" fill="#000000" fill-rule="nonzero" fill-opacity="1"/></g></g></svg>