<svg width="365" height="365" xmlns="http://www.w3.org/2000/svg" xmlns:xlink="http://www.w3.org/1999/xlink" xml:space="preserve" overflow="hidden"><g transform="translate(-176 -105)"><g><g><g><g><path d="M340.083 352.458 330.604 352.458C337.894 340.778 334.334 325.4 322.654 318.11 320.86 316.99 318.93 316.103 316.913 315.471 314.909 314.861 312.79 315.992 312.181 317.996 311.571 320 312.702 322.119 314.706 322.728 321.897 324.988 326.795 331.649 326.809 339.188 326.86 344.733 324.196 349.954 319.677 353.167 317.974 354.387 317.582 356.755 318.802 358.458 319.513 359.451 320.658 360.04 321.88 360.042L340.08 360.042C344.268 360.042 347.663 363.437 347.663 367.625 347.663 371.813 344.268 375.208 340.08 375.208L300.267 375.208C276.208 375.092 253.187 365.393 236.298 348.257 219.93 331.925 210.859 309.669 211.148 286.548 212.111 239.021 250.831 200.951 298.367 200.792 300.462 200.792 302.159 199.094 302.159 197 302.159 194.906 300.462 193.208 298.367 193.208 246.705 193.403 204.633 234.779 203.576 286.43 203.243 311.588 213.096 335.813 230.895 353.596 249.219 372.171 274.19 382.678 300.282 382.792L340.095 382.792C348.471 382.792 355.261 376.001 355.261 367.625 355.261 359.249 348.471 352.458 340.095 352.458Z" fill="#000000" fill-rule="nonzero" fill-opacity="1"/><path d="M431.042 359.663C435.251 359.566 438.788 362.805 439.061 367.007 439.297 371.088 436.18 374.587 432.099 374.823 431.892 374.835 431.685 374.838 431.478 374.833L366.602 374.833C364.508 374.833 362.811 376.53 362.811 378.625 362.811 380.719 364.508 382.416 366.602 382.416L431.47 382.416C439.743 382.526 446.539 375.909 446.649 367.636 446.653 367.358 446.649 367.08 446.637 366.802 446.307 359.785 441.265 353.882 434.386 352.458L507.254 312.934C511.522 310.52 514.36 306.192 514.872 301.316 514.887 301.178 514.894 301.039 514.894 300.899 514.58 291.647 507.95 283.824 498.875 281.998L431.55 270.027 411.2 254.137C409.144 252.746 406.543 252.434 404.216 253.299 401.819 254.182 400.003 256.179 399.351 258.649L396.211 271.207C376.611 257.953 353.611 250.619 329.956 250.083 288.395 248.843 252.985 279.192 249.466 319.092 248.503 329.12 249.585 339.239 252.648 348.837 253.191 350.859 255.271 352.058 257.293 351.515 259.316 350.971 260.514 348.891 259.971 346.868 259.943 346.765 259.911 346.663 259.874 346.562 257.119 337.931 256.143 328.831 257.004 319.812 260.189 283.859 292.267 256.56 329.687 257.667 354.75 258.694 378.065 266.585 394.221 279.298L392.746 285.619C392.272 287.655 393.536 289.69 395.571 290.169 395.856 290.238 396.149 290.272 396.443 290.271 398.201 290.271 399.728 289.062 400.132 287.352L406.748 260.321C406.754 260.301 406.775 260.289 406.795 260.295 406.8 260.296 406.805 260.298 406.809 260.302L427.618 276.568C428.105 276.956 428.681 277.216 429.294 277.326L497.434 289.441C502.86 290.571 506.883 295.159 507.292 300.687 507.005 303.029 505.636 305.102 503.595 306.287L419.136 352.079 400.727 352.079C398.633 352.079 396.936 353.777 396.936 355.871 396.936 357.965 398.633 359.663 400.727 359.663Z" fill="#000000" fill-rule="nonzero" fill-opacity="1"/><path d="M450.015 293.688C450.015 296.829 447.469 299.375 444.328 299.375 441.187 299.375 438.64 296.829 438.64 293.688 438.64 290.546 441.187 288 444.328 288 447.469 288 450.015 290.546 450.015 293.688Z" fill="#000000" fill-rule="nonzero" fill-opacity="1"/></g></g></g></g></g></svg>